<svg width="274" height="274" viewBox="0 0 274 274" fill="none" xmlns="http://www.w3.org/2000/svg">
<rect x="58.5" y="58.5" width="157" height="157" rx="6.5" stroke="#333333" stroke-width="3"/>
<path d="M94.3339 155.71C95.4389 155.319 96.2719 154.384 96.2719 152.922C96.2719 150.882 94.5549 149.726 91.5119 149.726C89.0809 149.726 87.6869 150.576 86.6499 151.885L88.3839 153.449C88.9449 152.497 89.9139 151.817 91.3929 151.817C92.9059 151.817 93.9259 152.327 93.9259 153.415C93.9259 154.401 92.9909 155.081 91.5629 155.081H89.6589V156.934H91.8349C93.7389 156.934 94.5039 157.597 94.5039 158.43C94.5039 159.569 93.5519 160.147 91.8349 160.147C89.8289 160.147 88.6219 159.484 88.0439 158.481L86.3269 160.079C87.3809 161.422 88.9449 162.238 91.7499 162.238C95.1159 162.238 96.9859 160.997 96.9859 158.6C96.9859 157.019 95.7959 156.016 94.3339 155.71ZM97.3262 162H99.9442L100.981 159.705H106.251L107.305 162H109.923L104.398 149.896H102.834L97.3262 162ZM101.797 157.682L102.698 155.54L103.616 153.075L104.551 155.54L105.452 157.682H101.797ZM111.164 162H113.595V152.208H119.817V149.947H111.164V162ZM123.638 162V158.736H125.78C129.129 158.736 130.914 157.325 130.914 154.282C130.914 151.443 129.231 149.947 126.035 149.947H121.241V162H123.638ZM123.638 152.089H125.882C127.65 152.089 128.432 152.854 128.432 154.35C128.432 155.778 127.582 156.628 125.695 156.628H123.638V152.089ZM135.833 158.923C135.221 159.875 134.592 160.079 133.674 160.079C133.402 160.079 133.113 160.045 132.841 160.011V162.136C133.266 162.204 133.708 162.238 134.099 162.238C136.36 162.238 137.261 161.167 138.349 158.923L142.769 149.947H140.049L137.771 154.707L137.006 156.509L136.241 154.724L133.929 149.947H131.158L135.833 158.923ZM151.178 155.71C152.283 155.319 153.116 154.384 153.116 152.922C153.116 150.882 151.399 149.726 148.356 149.726C145.925 149.726 144.531 150.576 143.494 151.885L145.228 153.449C145.789 152.497 146.758 151.817 148.237 151.817C149.75 151.817 150.77 152.327 150.77 153.415C150.77 154.401 149.835 155.081 148.407 155.081H146.503V156.934H148.679C150.583 156.934 151.348 157.597 151.348 158.43C151.348 159.569 150.396 160.147 148.679 160.147C146.673 160.147 145.466 159.484 144.888 158.481L143.171 160.079C144.225 161.422 145.789 162.238 148.594 162.238C151.96 162.238 153.83 160.997 153.83 158.6C153.83 157.019 152.64 156.016 151.178 155.71ZM164.961 149.879L157.804 157.58V149.947H155.407V162.068H156.682L163.822 154.384V162H166.219V149.879H164.961ZM167.774 152.208H171.616V162H174.064V152.208H177.906V149.947H167.774V152.208ZM179.463 149.947V162H188.49V159.841H181.792V157.087H187.198V155.03H181.792V152.123H188.218V149.947H179.463ZM80.5781 180.88C80.5781 184.161 82.8561 186.099 86.2901 186.099H86.3751V187.289H88.6871V186.099H88.7721C92.3251 186.099 94.4841 183.94 94.4841 180.88C94.4841 177.684 92.2061 175.661 88.8571 175.661H88.6871V174.556H86.3751V175.661H86.2051C82.6351 175.661 80.5781 177.786 80.5781 180.88ZM88.6871 184.076V177.667H88.8571C90.7611 177.667 92.0361 178.908 92.0361 180.88C92.0361 182.733 90.7781 184.076 88.8911 184.076H88.6871ZM86.2051 177.667H86.3751V184.076H86.1881C84.2841 184.076 83.0431 182.733 83.0431 180.88C83.0431 178.908 84.3011 177.667 86.2051 177.667ZM102.216 187.238C106.126 187.238 108.71 184.637 108.71 180.982C108.71 177.208 105.99 174.709 102.216 174.709C98.3225 174.709 95.7555 177.31 95.7555 180.982C95.7555 184.756 98.4585 187.238 102.216 187.238ZM102.216 184.977C99.8355 184.977 98.2545 183.311 98.2545 180.982C98.2545 178.551 99.9205 176.97 102.216 176.97C104.63 176.97 106.194 178.636 106.194 180.982C106.194 183.413 104.528 184.977 102.216 184.977ZM109.03 177.208H112.872V187H115.32V177.208H119.162V174.947H109.03V177.208ZM125.956 187.238C129.866 187.238 132.45 184.637 132.45 180.982C132.45 177.208 129.73 174.709 125.956 174.709C122.063 174.709 119.496 177.31 119.496 180.982C119.496 184.756 122.199 187.238 125.956 187.238ZM125.956 184.977C123.576 184.977 121.995 183.311 121.995 180.982C121.995 178.551 123.661 176.97 125.956 176.97C128.37 176.97 129.934 178.636 129.934 180.982C129.934 183.413 128.268 184.977 125.956 184.977ZM143.699 187.238C146.13 187.238 147.813 186.354 148.969 184.943L147.099 183.362C146.419 184.314 145.263 184.96 143.767 184.96C141.455 184.96 139.908 183.413 139.908 180.931C139.908 178.483 141.455 177.004 143.767 177.004C145.263 177.004 146.419 177.667 147.099 178.619L148.969 177.038C147.813 175.627 146.028 174.726 143.699 174.726C139.908 174.726 137.409 177.055 137.409 180.931C137.409 184.824 139.908 187.238 143.699 187.238ZM150.466 187H152.863V182.512H155.192C155.821 185.419 158.269 187.238 161.465 187.238C165.358 187.238 167.925 184.637 167.925 180.982C167.925 177.208 165.222 174.709 161.465 174.709C157.827 174.709 155.362 177.004 155.073 180.319H152.863V174.947H150.466V187ZM157.555 180.982C157.555 178.551 159.204 176.97 161.465 176.97C163.845 176.97 165.409 178.636 165.409 180.982C165.409 183.413 163.76 184.977 161.465 184.977C159.102 184.977 157.555 183.311 157.555 180.982ZM170.54 189.822V187H179.567V189.822H181.76V184.773H179.788V174.947H170.608V180.71C170.608 182.563 170.319 184.161 169.605 184.773H168.347V189.822H170.54ZM172.121 184.773C172.682 184.059 173.005 182.903 173.005 180.88V177.174H177.391V184.773H172.121ZM182.301 187H184.919L185.956 184.705H191.226L192.28 187H194.898L189.373 174.896H187.809L182.301 187ZM186.772 182.682L187.673 180.54L188.591 178.075L189.526 180.54L190.427 182.682H186.772Z" fill="#333333"/>
<g clip-path="url(#clip0_757_2635)">
<path d="M148.667 87H125.333C123.124 87.0026 121.006 87.8815 119.444 89.4437C117.881 91.0059 117.003 93.124 117 95.3333V118.667C117.003 120.876 117.881 122.994 119.444 124.556C121.006 126.119 123.124 126.997 125.333 127H148.667C150.876 126.997 152.994 126.119 154.556 124.556C156.119 122.994 156.997 120.876 157 118.667V95.3333C156.997 93.124 156.119 91.0059 154.556 89.4437C152.994 87.8815 150.876 87.0026 148.667 87V87ZM128.667 123.667V122C128.667 119.79 129.545 117.67 131.107 116.107C132.67 114.545 134.79 113.667 137 113.667C139.21 113.667 141.33 114.545 142.893 116.107C144.455 117.67 145.333 119.79 145.333 122V123.667H128.667ZM153.667 118.667C153.667 119.993 153.14 121.265 152.202 122.202C151.265 123.14 149.993 123.667 148.667 123.667V122C148.667 118.906 147.438 115.938 145.25 113.75C143.062 111.562 140.094 110.333 137 110.333C133.906 110.333 130.938 111.562 128.75 113.75C126.562 115.938 125.333 118.906 125.333 122V123.667C124.007 123.667 122.735 123.14 121.798 122.202C120.86 121.265 120.333 119.993 120.333 118.667V95.3333C120.333 94.0073 120.86 92.7355 121.798 91.7978C122.735 90.8601 124.007 90.3333 125.333 90.3333H148.667C149.993 90.3333 151.265 90.8601 152.202 91.7978C153.14 92.7355 153.667 94.0073 153.667 95.3333V118.667Z" fill="#333333"/>
<path d="M137.001 93.667C135.682 93.667 134.393 94.058 133.297 94.7905C132.201 95.5231 131.346 96.5643 130.841 97.7824C130.337 99.0006 130.205 100.341 130.462 101.634C130.719 102.927 131.354 104.115 132.287 105.048C133.219 105.98 134.407 106.615 135.7 106.872C136.993 107.129 138.334 106.997 139.552 106.493C140.77 105.988 141.811 105.134 142.544 104.037C143.276 102.941 143.667 101.652 143.667 100.334C143.667 98.5655 142.965 96.8699 141.715 95.6196C140.464 94.3694 138.769 93.667 137.001 93.667ZM137.001 103.667C136.341 103.667 135.697 103.471 135.149 103.105C134.601 102.739 134.173 102.218 133.921 101.609C133.669 101 133.603 100.33 133.731 99.6834C133.86 99.0368 134.177 98.4428 134.644 97.9766C135.11 97.5105 135.704 97.193 136.35 97.0644C136.997 96.9358 137.667 97.0018 138.276 97.2541C138.885 97.5064 139.406 97.9336 139.772 98.4818C140.138 99.0299 140.334 99.6744 140.334 100.334C140.334 101.218 139.983 102.066 139.358 102.691C138.733 103.316 137.885 103.667 137.001 103.667Z" fill="#374957"/>
</g>
<path d="M5.14397 8.9323L5.14397 17.1341C5.14497 17.4679 5.27801 17.7878 5.51404 18.0238C5.75008 18.2598 6.06993 18.3929 6.40373 18.3939C6.57053 18.3946 6.73581 18.3622 6.89005 18.2987C7.04428 18.2352 7.18441 18.1418 7.30236 18.0238C7.4203 17.9059 7.51373 17.7657 7.57724 17.6115C7.64076 17.4573 7.67311 17.292 7.67242 17.1252L7.65455 8.92336C7.65387 8.75656 7.68622 8.59128 7.74973 8.43705C7.81325 8.28281 7.90667 8.14268 8.02462 8.02474C8.14256 7.90679 8.2827 7.81336 8.43693 7.74985C8.59116 7.68633 8.75645 7.65398 8.92325 7.65467L17.1251 7.67254C17.4604 7.67372 17.7824 7.54166 18.0203 7.30541C18.2582 7.06916 18.3926 6.74807 18.3938 6.41278C18.395 6.07748 18.2629 5.75545 18.0266 5.51753C17.7904 5.2796 17.4693 5.14527 17.134 5.14409L8.93218 5.14409C7.92768 5.14471 6.96449 5.54403 6.2542 6.25432C5.54391 6.96461 5.1446 7.92779 5.14397 8.9323Z" fill="#333333"/>
<path d="M264.992 5.14397L256.79 5.14397C256.456 5.14497 256.136 5.27801 255.9 5.51404C255.664 5.75008 255.531 6.06993 255.53 6.40373C255.529 6.57053 255.562 6.73581 255.625 6.89005C255.689 7.04428 255.782 7.18441 255.9 7.30236C256.018 7.4203 256.158 7.51373 256.312 7.57724C256.467 7.64076 256.632 7.67311 256.799 7.67242L265 7.65455C265.167 7.65387 265.333 7.68622 265.487 7.74973C265.641 7.81325 265.781 7.90667 265.899 8.02462C266.017 8.14257 266.11 8.2827 266.174 8.43693C266.237 8.59116 266.27 8.75645 266.269 8.92325L266.251 17.1251C266.25 17.4604 266.382 17.7824 266.618 18.0203C266.855 18.2583 267.176 18.3926 267.511 18.3938C267.846 18.395 268.168 18.2629 268.406 18.0266C268.644 17.7904 268.779 17.4693 268.78 17.134L268.78 8.93218C268.779 7.92768 268.38 6.96449 267.67 6.2542C266.959 5.54391 265.996 5.1446 264.992 5.14397Z" fill="#333333"/>
<path d="M8.9323 268.78L17.1341 268.78C17.4679 268.779 17.7878 268.646 18.0238 268.41C18.2598 268.174 18.3929 267.854 18.3939 267.52C18.3946 267.353 18.3622 267.188 18.2987 267.034C18.2352 266.88 18.1418 266.739 18.0238 266.621C17.9059 266.504 17.7657 266.41 17.6115 266.347C17.4573 266.283 17.292 266.251 17.1252 266.251L8.92336 266.269C8.75656 266.27 8.59128 266.238 8.43705 266.174C8.28281 266.111 8.14268 266.017 8.02474 265.899C7.90679 265.781 7.81337 265.641 7.74985 265.487C7.68633 265.333 7.65398 265.167 7.65467 265.001L7.67254 256.799C7.67372 256.463 7.54167 256.141 7.30542 255.904C7.06916 255.666 6.74807 255.531 6.41278 255.53C6.07749 255.529 5.75546 255.661 5.51753 255.897C5.2796 256.133 5.14527 256.455 5.14409 256.79L5.14409 264.992C5.14471 265.996 5.54403 266.959 6.25432 267.67C6.96461 268.38 7.92779 268.779 8.9323 268.78Z" fill="#333333"/>
<path d="M268.78 264.992L268.78 256.79C268.779 256.456 268.646 256.136 268.41 255.9C268.174 255.664 267.854 255.531 267.52 255.53C267.353 255.529 267.188 255.562 267.034 255.625C266.88 255.689 266.739 255.782 266.621 255.9C266.504 256.018 266.41 256.158 266.347 256.312C266.283 256.467 266.251 256.632 266.251 256.799L266.269 265C266.27 265.167 266.238 265.333 266.174 265.487C266.111 265.641 266.017 265.781 265.899 265.899C265.781 266.017 265.641 266.11 265.487 266.174C265.333 266.237 265.167 266.27 265.001 266.269L256.799 266.251C256.463 266.25 256.141 266.382 255.904 266.618C255.666 266.855 255.531 267.176 255.53 267.511C255.529 267.846 255.661 268.168 255.897 268.406C256.133 268.644 256.455 268.779 256.79 268.78L264.992 268.78C265.996 268.779 266.959 268.38 267.67 267.67C268.38 266.959 268.779 265.996 268.78 264.992Z" fill="#333333"/>
<defs>
<clipPath id="clip0_757_2635">
<rect width="40" height="40" fill="white" transform="translate(117 87)"/>
</clipPath>
</defs>
</svg>
