<svg width="274" height="274" viewBox="0 0 274 274" fill="none" xmlns="http://www.w3.org/2000/svg">
<path d="M5.14397 8.9323L5.14397 17.1341C5.14497 17.4679 5.27801 17.7878 5.51404 18.0238C5.75008 18.2598 6.06993 18.3929 6.40373 18.3939C6.57053 18.3946 6.73581 18.3622 6.89005 18.2987C7.04428 18.2352 7.18441 18.1418 7.30236 18.0238C7.4203 17.9059 7.51373 17.7657 7.57724 17.6115C7.64076 17.4573 7.67311 17.292 7.67242 17.1252L7.65455 8.92336C7.65387 8.75656 7.68622 8.59128 7.74973 8.43705C7.81325 8.28281 7.90667 8.14268 8.02462 8.02474C8.14256 7.90679 8.2827 7.81336 8.43693 7.74985C8.59116 7.68633 8.75645 7.65398 8.92325 7.65467L17.1251 7.67254C17.4604 7.67372 17.7824 7.54166 18.0203 7.30541C18.2582 7.06916 18.3926 6.74807 18.3938 6.41278C18.395 6.07748 18.2629 5.75545 18.0266 5.51753C17.7904 5.2796 17.4693 5.14527 17.134 5.14409L8.93218 5.14409C7.92768 5.14471 6.96449 5.54403 6.2542 6.25432C5.54391 6.96461 5.1446 7.92779 5.14397 8.9323Z" fill="#333333"/>
<path d="M264.992 5.14397L256.79 5.14397C256.456 5.14497 256.136 5.27801 255.9 5.51404C255.664 5.75008 255.531 6.06993 255.53 6.40373C255.529 6.57053 255.562 6.73581 255.625 6.89005C255.689 7.04428 255.782 7.18441 255.9 7.30236C256.018 7.4203 256.158 7.51373 256.312 7.57724C256.467 7.64076 256.632 7.67311 256.799 7.67242L265 7.65455C265.167 7.65387 265.333 7.68622 265.487 7.74973C265.641 7.81325 265.781 7.90667 265.899 8.02462C266.017 8.14257 266.11 8.2827 266.174 8.43693C266.237 8.59116 266.27 8.75645 266.269 8.92325L266.251 17.1251C266.25 17.4604 266.382 17.7824 266.618 18.0203C266.855 18.2583 267.176 18.3926 267.511 18.3938C267.846 18.395 268.168 18.2629 268.406 18.0266C268.644 17.7904 268.779 17.4693 268.78 17.134L268.78 8.93218C268.779 7.92768 268.38 6.96449 267.67 6.2542C266.959 5.54391 265.996 5.1446 264.992 5.14397Z" fill="#333333"/>
<path d="M8.9323 268.78L17.1341 268.78C17.4679 268.779 17.7878 268.646 18.0238 268.41C18.2598 268.174 18.3929 267.854 18.3939 267.52C18.3946 267.353 18.3622 267.188 18.2987 267.034C18.2352 266.88 18.1418 266.739 18.0238 266.621C17.9059 266.504 17.7657 266.41 17.6115 266.347C17.4573 266.283 17.292 266.251 17.1252 266.251L8.92336 266.269C8.75656 266.27 8.59128 266.238 8.43705 266.174C8.28281 266.111 8.14268 266.017 8.02474 265.899C7.90679 265.781 7.81337 265.641 7.74985 265.487C7.68633 265.333 7.65398 265.167 7.65467 265.001L7.67254 256.799C7.67372 256.463 7.54167 256.141 7.30542 255.904C7.06916 255.666 6.74807 255.531 6.41278 255.53C6.07749 255.529 5.75546 255.661 5.51753 255.897C5.2796 256.133 5.14527 256.455 5.14409 256.79L5.14409 264.992C5.14471 265.996 5.54403 266.959 6.25432 267.67C6.96461 268.38 7.92779 268.779 8.9323 268.78Z" fill="#333333"/>
<path d="M268.78 264.992L268.78 256.79C268.779 256.456 268.646 256.136 268.41 255.9C268.174 255.664 267.854 255.531 267.52 255.53C267.353 255.529 267.188 255.562 267.034 255.625C266.88 255.689 266.739 255.782 266.621 255.9C266.504 256.018 266.41 256.158 266.347 256.312C266.283 256.467 266.251 256.632 266.251 256.799L266.269 265C266.27 265.167 266.238 265.333 266.174 265.487C266.111 265.641 266.017 265.781 265.899 265.899C265.781 266.017 265.641 266.11 265.487 266.174C265.333 266.237 265.167 266.27 265.001 266.269L256.799 266.251C256.463 266.25 256.141 266.382 255.904 266.618C255.666 266.855 255.531 267.176 255.53 267.511C255.529 267.846 255.661 268.168 255.897 268.406C256.133 268.644 256.455 268.779 256.79 268.78L264.992 268.78C265.996 268.779 266.959 268.38 267.67 267.67C268.38 266.959 268.779 265.996 268.78 264.992Z" fill="#333333"/>
</svg>
