<svg width="240" height="330" viewBox="0 0 240 330" fill="none" xmlns="http://www.w3.org/2000/svg">
<rect x="41.5" y="1.5" width="157" height="157" rx="6.5" stroke="#333333" stroke-width="3"/>
<path d="M77.3339 98.71C78.4389 98.319 79.2719 97.384 79.2719 95.922C79.2719 93.882 77.5549 92.726 74.5119 92.726C72.0809 92.726 70.6869 93.576 69.6499 94.885L71.3839 96.449C71.9449 95.497 72.9139 94.817 74.3929 94.817C75.9059 94.817 76.9259 95.327 76.9259 96.415C76.9259 97.401 75.9909 98.081 74.5629 98.081H72.6589V99.934H74.8349C76.7389 99.934 77.5039 100.597 77.5039 101.43C77.5039 102.569 76.5519 103.147 74.8349 103.147C72.8289 103.147 71.6219 102.484 71.0439 101.481L69.3269 103.079C70.3809 104.422 71.9449 105.238 74.7499 105.238C78.1159 105.238 79.9859 103.997 79.9859 101.6C79.9859 100.019 78.7959 99.016 77.3339 98.71ZM80.3262 105H82.9442L83.9812 102.705H89.2512L90.3052 105H92.9232L87.3982 92.896H85.8342L80.3262 105ZM84.7972 100.682L85.6982 98.54L86.6162 96.075L87.5512 98.54L88.4522 100.682H84.7972ZM94.1638 105H96.5948V95.208H102.817V92.947H94.1638V105ZM106.638 105V101.736H108.78C112.129 101.736 113.914 100.325 113.914 97.282C113.914 94.443 112.231 92.947 109.035 92.947H104.241V105H106.638ZM106.638 95.089H108.882C110.65 95.089 111.432 95.854 111.432 97.35C111.432 98.778 110.582 99.628 108.695 99.628H106.638V95.089ZM118.833 101.923C118.221 102.875 117.592 103.079 116.674 103.079C116.402 103.079 116.113 103.045 115.841 103.011V105.136C116.266 105.204 116.708 105.238 117.099 105.238C119.36 105.238 120.261 104.167 121.349 101.923L125.769 92.947H123.049L120.771 97.707L120.006 99.509L119.241 97.724L116.929 92.947H114.158L118.833 101.923ZM134.178 98.71C135.283 98.319 136.116 97.384 136.116 95.922C136.116 93.882 134.399 92.726 131.356 92.726C128.925 92.726 127.531 93.576 126.494 94.885L128.228 96.449C128.789 95.497 129.758 94.817 131.237 94.817C132.75 94.817 133.77 95.327 133.77 96.415C133.77 97.401 132.835 98.081 131.407 98.081H129.503V99.934H131.679C133.583 99.934 134.348 100.597 134.348 101.43C134.348 102.569 133.396 103.147 131.679 103.147C129.673 103.147 128.466 102.484 127.888 101.481L126.171 103.079C127.225 104.422 128.789 105.238 131.594 105.238C134.96 105.238 136.83 103.997 136.83 101.6C136.83 100.019 135.64 99.016 134.178 98.71ZM147.961 92.879L140.804 100.58V92.947H138.407V105.068H139.682L146.822 97.384V105H149.219V92.879H147.961ZM150.774 95.208H154.616V105H157.064V95.208H160.906V92.947H150.774V95.208ZM162.463 92.947V105H171.49V102.841H164.792V100.087H170.198V98.03H164.792V95.123H171.218V92.947H162.463ZM63.5781 123.88C63.5781 127.161 65.8561 129.099 69.2901 129.099H69.3751V130.289H71.6871V129.099H71.7721C75.3251 129.099 77.4841 126.94 77.4841 123.88C77.4841 120.684 75.2061 118.661 71.8571 118.661H71.6871V117.556H69.3751V118.661H69.2051C65.6351 118.661 63.5781 120.786 63.5781 123.88ZM71.6871 127.076V120.667H71.8571C73.7611 120.667 75.0361 121.908 75.0361 123.88C75.0361 125.733 73.7781 127.076 71.8911 127.076H71.6871ZM69.2051 120.667H69.3751V127.076H69.1881C67.2841 127.076 66.0431 125.733 66.0431 123.88C66.0431 121.908 67.3011 120.667 69.2051 120.667ZM85.2155 130.238C89.1255 130.238 91.7095 127.637 91.7095 123.982C91.7095 120.208 88.9895 117.709 85.2155 117.709C81.3225 117.709 78.7555 120.31 78.7555 123.982C78.7555 127.756 81.4585 130.238 85.2155 130.238ZM85.2155 127.977C82.8355 127.977 81.2545 126.311 81.2545 123.982C81.2545 121.551 82.9205 119.97 85.2155 119.97C87.6295 119.97 89.1935 121.636 89.1935 123.982C89.1935 126.413 87.5275 127.977 85.2155 127.977ZM92.0296 120.208H95.8716V130H98.3196V120.208H102.162V117.947H92.0296V120.208ZM108.956 130.238C112.866 130.238 115.45 127.637 115.45 123.982C115.45 120.208 112.73 117.709 108.956 117.709C105.063 117.709 102.496 120.31 102.496 123.982C102.496 127.756 105.199 130.238 108.956 130.238ZM108.956 127.977C106.576 127.977 104.995 126.311 104.995 123.982C104.995 121.551 106.661 119.97 108.956 119.97C111.37 119.97 112.934 121.636 112.934 123.982C112.934 126.413 111.268 127.977 108.956 127.977ZM126.699 130.238C129.13 130.238 130.813 129.354 131.969 127.943L130.099 126.362C129.419 127.314 128.263 127.96 126.767 127.96C124.455 127.96 122.908 126.413 122.908 123.931C122.908 121.483 124.455 120.004 126.767 120.004C128.263 120.004 129.419 120.667 130.099 121.619L131.969 120.038C130.813 118.627 129.028 117.726 126.699 117.726C122.908 117.726 120.409 120.055 120.409 123.931C120.409 127.824 122.908 130.238 126.699 130.238ZM133.466 130H135.863V125.512H138.192C138.821 128.419 141.269 130.238 144.465 130.238C148.358 130.238 150.925 127.637 150.925 123.982C150.925 120.208 148.222 117.709 144.465 117.709C140.827 117.709 138.362 120.004 138.073 123.319H135.863V117.947H133.466V130ZM140.555 123.982C140.555 121.551 142.204 119.97 144.465 119.97C146.845 119.97 148.409 121.636 148.409 123.982C148.409 126.413 146.76 127.977 144.465 127.977C142.102 127.977 140.555 126.311 140.555 123.982ZM153.54 132.822V130H162.567V132.822H164.76V127.773H162.788V117.947H153.608V123.71C153.608 125.563 153.319 127.161 152.605 127.773H151.347V132.822H153.54ZM155.121 127.773C155.682 127.059 156.005 125.903 156.005 123.88V120.174H160.391V127.773H155.121ZM165.301 130H167.919L168.956 127.705H174.226L175.28 130H177.898L172.373 117.896H170.809L165.301 130ZM169.772 125.682L170.673 123.54L171.591 121.075L172.526 123.54L173.427 125.682H169.772Z" fill="#333333"/>
<g clip-path="url(#clip0_757_2635)">
<path d="M131.667 30H108.333C106.124 30.0026 104.006 30.8815 102.444 32.4437C100.881 34.0059 100.003 36.124 100 38.3333V61.6667C100.003 63.876 100.881 65.9941 102.444 67.5563C104.006 69.1185 106.124 69.9974 108.333 70H131.667C133.876 69.9974 135.994 69.1185 137.556 67.5563C139.119 65.9941 139.997 63.876 140 61.6667V38.3333C139.997 36.124 139.119 34.0059 137.556 32.4437C135.994 30.8815 133.876 30.0026 131.667 30V30ZM111.667 66.6667V65C111.667 62.7899 112.545 60.6702 114.107 59.1074C115.67 57.5446 117.79 56.6667 120 56.6667C122.21 56.6667 124.33 57.5446 125.893 59.1074C127.455 60.6702 128.333 62.7899 128.333 65V66.6667H111.667ZM136.667 61.6667C136.667 62.9927 136.14 64.2645 135.202 65.2022C134.265 66.1399 132.993 66.6667 131.667 66.6667V65C131.667 61.9058 130.438 58.9383 128.25 56.7504C126.062 54.5625 123.094 53.3333 120 53.3333C116.906 53.3333 113.938 54.5625 111.75 56.7504C109.562 58.9383 108.333 61.9058 108.333 65V66.6667C107.007 66.6667 105.735 66.1399 104.798 65.2022C103.86 64.2645 103.333 62.9927 103.333 61.6667V38.3333C103.333 37.0073 103.86 35.7355 104.798 34.7978C105.735 33.8601 107.007 33.3333 108.333 33.3333H131.667C132.993 33.3333 134.265 33.8601 135.202 34.7978C136.14 35.7355 136.667 37.0073 136.667 38.3333V61.6667Z" fill="#333333"/>
<path d="M120.001 36.667C118.682 36.667 117.393 37.058 116.297 37.7905C115.201 38.5231 114.346 39.5643 113.841 40.7824C113.337 42.0006 113.205 43.3411 113.462 44.6343C113.719 45.9275 114.354 47.1154 115.287 48.0477C116.219 48.9801 117.407 49.615 118.7 49.8722C119.993 50.1295 121.334 49.9974 122.552 49.4929C123.77 48.9883 124.811 48.1338 125.544 47.0375C126.276 45.9411 126.667 44.6522 126.667 43.3337C126.667 41.5655 125.965 39.8699 124.715 38.6196C123.464 37.3694 121.769 36.667 120.001 36.667ZM120.001 46.667C119.341 46.667 118.697 46.4715 118.149 46.1052C117.601 45.739 117.173 45.2184 116.921 44.6093C116.669 44.0002 116.603 43.33 116.731 42.6834C116.86 42.0368 117.177 41.4428 117.644 40.9766C118.11 40.5105 118.704 40.193 119.35 40.0644C119.997 39.9358 120.667 40.0018 121.276 40.2541C121.885 40.5064 122.406 40.9336 122.772 41.4818C123.138 42.0299 123.334 42.6744 123.334 43.3337C123.334 44.2177 122.983 45.0656 122.358 45.6907C121.733 46.3158 120.885 46.667 120.001 46.667Z" fill="#374957"/>
</g>
<path d="M66.8331 315C69.5851 315 70.7691 313.88 70.7691 311.768C70.7691 310.344 69.8571 309.432 68.2411 309.096C69.2971 308.776 69.9211 307.928 69.9211 306.6C69.9211 304.776 68.6891 303.72 66.2891 303.72H61.5851V315H66.8331ZM62.9291 313.752V309.864H66.4171C68.5131 309.864 69.3771 310.584 69.3771 311.768C69.3771 313.064 68.6731 313.752 66.8331 313.752H62.9291ZM66.3051 304.968C67.6651 304.968 68.5291 305.512 68.5291 306.664C68.5291 307.992 67.7931 308.616 66.0811 308.616H62.9291V304.968H66.3051ZM75.4483 315.304C76.8243 315.304 77.8643 314.808 78.5683 313.976V315.048H79.8323V309.496C79.8323 307.24 77.8963 306.136 75.8963 306.136C74.4883 306.136 73.0643 306.68 72.2483 307.752L73.1443 308.648C73.6083 307.752 74.7603 307.272 75.8963 307.272C77.2563 307.272 78.5683 307.976 78.5683 309.496V309.672H75.5283C73.5443 309.672 71.8803 310.504 71.8803 312.488C71.8803 314.376 73.4483 315.304 75.4483 315.304ZM75.4963 310.824H78.5683V311.496C78.5683 312.872 77.4803 314.152 75.4803 314.152C74.0883 314.152 73.1443 313.624 73.1443 312.488C73.1443 311.352 74.0403 310.824 75.4963 310.824ZM82.2871 306.344V317.8H83.5511V313.976C84.3671 314.904 85.5671 315.16 86.5431 315.16C89.1671 315.16 90.8791 313.432 90.8791 310.632C90.8791 307.864 89.1511 306.168 86.6231 306.168C85.6471 306.168 84.3831 306.456 83.5511 307.304V306.344H82.2871ZM83.5511 308.824C84.2231 307.88 85.4231 307.368 86.4791 307.368C88.2711 307.368 89.5511 308.6 89.5511 310.632C89.5511 312.712 88.2871 313.96 86.4311 313.96C85.3911 313.96 84.1911 313.528 83.5511 312.472V308.824ZM100.178 306.216L94.0656 312.776V306.344H92.8496V315.128H93.5216L99.6176 308.6V315H100.834V306.216H100.178ZM106.214 315.304C107.59 315.304 108.63 314.808 109.334 313.976V315.048H110.598V309.496C110.598 307.24 108.662 306.136 106.662 306.136C105.254 306.136 103.83 306.68 103.014 307.752L103.91 308.648C104.374 307.752 105.526 307.272 106.662 307.272C108.022 307.272 109.334 307.976 109.334 309.496V309.672H106.294C104.31 309.672 102.646 310.504 102.646 312.488C102.646 314.376 104.214 315.304 106.214 315.304ZM106.262 310.824H109.334V311.496C109.334 312.872 108.246 314.152 106.246 314.152C104.854 314.152 103.91 313.624 103.91 312.488C103.91 311.352 104.806 310.824 106.262 310.824ZM113.053 306.344V315H114.317V311.624H119.613V315H120.877V306.344H119.613V310.44H114.317V306.344H113.053ZM122.453 307.528H125.445V315H126.709V307.528H129.701V306.344H122.453V307.528ZM140.956 315H142.3V303.672H141.388L137.9 304.888L138.3 306.04L140.956 305.128V315ZM156.428 306.216L150.316 312.776V306.344H149.1V315.128H149.772L155.868 308.6V315H157.084V306.216H156.428ZM164.992 310.568C165.936 310.248 166.384 309.624 166.384 308.616C166.384 306.712 164.528 306.168 162.784 306.168C161.024 306.168 159.968 306.616 159.008 307.192L159.536 308.28C160.512 307.72 161.456 307.352 162.72 307.352C163.776 307.352 165.04 307.672 165.04 308.712C165.04 309.32 164.544 310.04 163.216 310.04H161.2V311.176H163.344C164.944 311.176 165.584 311.8 165.584 312.552C165.584 313.64 164.288 313.96 162.656 313.96C161.2 313.96 160.368 313.656 159.328 312.936L158.784 314.088C159.744 314.744 160.864 315.144 162.784 315.144C165.168 315.144 166.912 314.52 166.912 312.712C166.912 311.592 166.304 310.888 164.992 310.568ZM171.625 311.944V312.744H178.057V315H179.401V312.744H181.417V311.576H179.401V303.608H178.521L171.625 311.944ZM178.057 306.072V311.576H173.561L178.057 306.072Z" fill="#333333"/>
<circle cx="21" cy="309" r="21" fill="white"/>
<path d="M16.9785 311.771L22.0976 316.688C22.3065 316.888 22.5892 317 22.8838 317C23.1785 317 23.4611 316.888 23.6701 316.688C23.7746 316.589 23.8576 316.47 23.9142 316.34C23.9708 316.209 24 316.069 24 315.928C24 315.786 23.9708 315.646 23.9142 315.516C23.8576 315.385 23.7746 315.267 23.6701 315.167L18.5399 310.261C18.4353 310.161 18.3524 310.042 18.2957 309.912C18.2391 309.781 18.21 309.641 18.21 309.5C18.21 309.358 18.2391 309.218 18.2957 309.088C18.3524 308.957 18.4353 308.839 18.5399 308.739L23.6701 303.833C23.8801 303.632 23.9987 303.36 23.9997 303.076C24.0008 302.791 23.8842 302.518 23.6757 302.317C23.4672 302.115 23.1837 302.001 22.8878 302C22.5918 301.999 22.3076 302.111 22.0976 302.311L16.9785 307.229C16.3519 307.831 16 308.648 16 309.5C16 310.352 16.3519 311.168 16.9785 311.771Z" fill="#333333"/>
<circle cx="219" cy="309" r="21" transform="rotate(-180 219 309)" fill="white"/>
<path d="M223.022 306.229L217.902 301.312C217.693 301.112 217.411 301 217.116 301C216.822 301 216.539 301.112 216.33 301.312C216.225 301.411 216.142 301.53 216.086 301.66C216.029 301.791 216 301.931 216 302.072C216 302.214 216.029 302.354 216.086 302.484C216.142 302.615 216.225 302.733 216.33 302.833L221.46 307.739C221.565 307.839 221.648 307.958 221.704 308.088C221.761 308.219 221.79 308.359 221.79 308.5C221.79 308.642 221.761 308.782 221.704 308.912C221.648 309.043 221.565 309.161 221.46 309.261L216.33 314.167C216.12 314.368 216.001 314.64 216 314.924C215.999 315.209 216.116 315.482 216.324 315.683C216.533 315.885 216.816 315.999 217.112 316C217.408 316.001 217.692 315.889 217.902 315.689L223.022 310.771C223.648 310.169 224 309.352 224 308.5C224 307.648 223.648 306.832 223.022 306.229Z" fill="#333333"/>
<defs>
<clipPath id="clip0_757_2635">
<rect width="40" height="40" fill="white" transform="translate(100 30)"/>
</clipPath>
</defs>
</svg>
