<svg width="8" height="15" viewBox="0 0 8 15" fill="none" xmlns="http://www.w3.org/2000/svg">
<path d="M0.978493 9.77109L6.09758 14.6885C6.30653 14.888 6.5892 15 6.88384 15C7.17848 15 7.46115 14.888 7.67011 14.6885C7.77464 14.5889 7.85761 14.4704 7.91423 14.3398C7.97085 14.2093 8 14.0693 8 13.9278C8 13.7864 7.97085 13.6464 7.91423 13.5158C7.85761 13.3853 7.77464 13.2668 7.67011 13.1672L2.53987 8.26052C2.43534 8.16092 2.35237 8.04244 2.29575 7.91188C2.23913 7.78133 2.20997 7.6413 2.20997 7.49988C2.20997 7.35845 2.23913 7.21842 2.29575 7.08787C2.35237 6.95732 2.43534 6.83883 2.53987 6.73924L7.67011 1.83257C7.88012 1.63226 7.99869 1.36001 7.99973 1.07572C8.00078 0.791428 7.88421 0.51838 7.67568 0.316646C7.46715 0.114911 7.18374 0.00101273 6.88779 8.48584e-06C6.59183 -0.000996713 6.30759 0.110976 6.09758 0.31129L0.978493 5.22867C0.351933 5.83129 -2.23534e-07 6.64817 -2.97993e-07 7.49988C-3.72451e-07 8.35158 0.351933 9.16846 0.978493 9.77109Z" fill="#333333"/>
</svg>
