<svg width="24" height="24" viewBox="0 0 24 24" fill="none" xmlns="http://www.w3.org/2000/svg">
<path fill-rule="evenodd" clip-rule="evenodd" d="M12 24C5.37258 24 0 18.6274 0 12C0 5.37258 5.37258 0 12 0C18.6274 0 24 5.37258 24 12C24 18.6274 18.6274 24 12 24ZM12.1676 11.3265C13.1502 11.3265 17.9276 8.63995 17.9276 8.63995L17.9353 8.15995C17.9353 7.63003 17.5052 7.19995 16.9738 7.19995H7.36135C6.83047 7.19995 6.40039 7.63003 6.40039 8.15995V8.58763C6.40039 8.58763 11.2302 11.3265 12.1676 11.3265ZM6.40807 10.0801C6.40759 10.0801 11.2302 12.6466 12.1676 12.6466C13.1953 12.6466 17.9276 10.0801 17.9276 10.0801L17.9353 15.8401C17.9353 16.37 17.5052 16.8001 16.9738 16.8001H7.36135C6.83095 16.8001 6.40039 16.37 6.40039 15.8401L6.40807 10.0801Z" fill="#DADADA"/>
</svg>
