<svg width="8" height="15" viewBox="0 0 8 15" fill="none" xmlns="http://www.w3.org/2000/svg">
<path d="M7.02151 5.22892L1.90242 0.311533C1.69347 0.111998 1.4108 2.46672e-07 1.11616 1.95155e-07C0.821521 1.43639e-07 0.538854 0.111998 0.329895 0.311533C0.225362 0.411127 0.142393 0.529616 0.085772 0.660167C0.0291513 0.790718 -1.62737e-07 0.930746 -1.87465e-07 1.07217C-2.12193e-07 1.2136 0.0291512 1.35363 0.0857719 1.48418C0.142393 1.61473 0.225362 1.73322 0.329894 1.83281L5.46013 6.73948C5.56466 6.83908 5.64763 6.95757 5.70425 7.08812C5.76087 7.21867 5.79002 7.3587 5.79002 7.50012C5.79002 7.64155 5.76087 7.78158 5.70425 7.91213C5.64763 8.04268 5.56466 8.16117 5.46013 8.26076L0.329892 13.1674C0.119883 13.3677 0.00131354 13.64 0.000267721 13.9243C-0.000778096 14.2086 0.115786 14.4816 0.324317 14.6834C0.532847 14.8851 0.816262 14.999 1.11221 15C1.40817 15.001 1.69241 14.889 1.90242 14.6887L7.02151 9.77133C7.64807 9.16871 8 8.35183 8 7.50012C8 6.64842 7.64807 5.83154 7.02151 5.22892Z" fill="#333333"/>
</svg>
